<?xml version="1.0" encoding="UTF-8" standalone="no"?>
<!-- Created with Inkscape (http://www.inkscape.org/) -->

<svg
   width="171.33333mm"
   height="171.33333mm"
   viewBox="0 0 607.0866 607.08659"
   id="svg2"
   version="1.1"
   inkscape:version="1.2.1 (9c6d41e410, 2022-07-14)"
   sodipodi:docname="ic_outline_foreground.svg"
   inkscape:export-filename="..\EX_Toolbox\src\main\res\mipmap-hdpi\ic_launcher_foreground.png"
   inkscape:export-xdpi="11.172414"
   inkscape:export-ydpi="11.172414"
   xml:space="preserve"
   xmlns:inkscape="http://www.inkscape.org/namespaces/inkscape"
   xmlns:sodipodi="http://sodipodi.sourceforge.net/DTD/sodipodi-0.dtd"
   xmlns="http://www.w3.org/2000/svg"
   xmlns:svg="http://www.w3.org/2000/svg"
   xmlns:rdf="http://www.w3.org/1999/02/22-rdf-syntax-ns#"
   xmlns:cc="http://creativecommons.org/ns#"
   xmlns:dc="http://purl.org/dc/elements/1.1/"><defs
     id="defs4"><rect
       x="462"
       y="280"
       width="171.11284"
       height="353.11285"
       id="rect2420" /><linearGradient
       id="linearGradient4155"
       inkscape:swatch="solid"><stop
         style="stop-color:#000000;stop-opacity:1;"
         offset="0"
         id="stop4157" /></linearGradient><linearGradient
       id="linearGradient4149"><stop
         style="stop-color:#000000;stop-opacity:1;"
         offset="0"
         id="stop4151" /></linearGradient><linearGradient
       id="linearGradient4139"
       inkscape:swatch="gradient"><stop
         style="stop-color:#2b2200;stop-opacity:1;"
         offset="0"
         id="stop4141" /><stop
         style="stop-color:#2b2200;stop-opacity:0;"
         offset="1"
         id="stop4143" /></linearGradient><rect
       x="720.49402"
       y="801.32397"
       width="243.95853"
       height="98.689613"
       id="rect4023" /><linearGradient
       gradientUnits="userSpaceOnUse"
       y2="597.09998"
       x2="707.41602"
       y1="-4.4348102"
       x1="707.41602"
       id="paint0_linear"><stop
         id="stop33"
         stop-color="#D3D3D3" /><stop
         id="stop35"
         stop-color="white"
         offset="1" /></linearGradient><mask
       height="599"
       width="599"
       y="21"
       x="406"
       maskUnits="userSpaceOnUse"
       mask-type="alpha"
       id="mask0-5"><rect
         id="rect4-1"
         fill="#ffffff"
         transform="rotate(-45,406.51,320.148)"
         rx="56.537102"
         height="422.702"
         width="422.702"
         y="320.14801"
         x="406.51001" /></mask></defs><sodipodi:namedview
     id="base"
     pagecolor="#ffffff"
     bordercolor="#666666"
     borderopacity="1.0"
     inkscape:pageopacity="0.0"
     inkscape:pageshadow="2"
     inkscape:zoom="1"
     inkscape:cx="238.5"
     inkscape:cy="290.5"
     inkscape:document-units="px"
     inkscape:current-layer="g4165"
     showgrid="false"
     fit-margin-top="1"
     fit-margin-left="1"
     fit-margin-right="1"
     fit-margin-bottom="1"
     units="mm"
     inkscape:window-width="1600"
     inkscape:window-height="816"
     inkscape:window-x="-8"
     inkscape:window-y="-7"
     inkscape:window-maximized="1"
     inkscape:pagecheckerboard="0"
     inkscape:showpageshadow="0"
     inkscape:deskcolor="#d1d1d1"
     showguides="true"><sodipodi:guide
       position="139.6875,375.5241"
       orientation="1,0"
       id="guide3242"
       inkscape:locked="false" /><sodipodi:guide
       position="467.81251,428.9616"
       orientation="1,0"
       id="guide3244"
       inkscape:locked="false" /><sodipodi:guide
       position="422.81251,467.39911"
       orientation="0,-1"
       id="guide3246"
       inkscape:locked="false" /><sodipodi:guide
       position="428.43751,136.4616"
       orientation="0,-1"
       id="guide3248"
       inkscape:locked="false" /><sodipodi:guide
       position="301.87501,302.3991"
       orientation="0,-1"
       id="guide3323"
       inkscape:locked="false" /><sodipodi:guide
       position="303.75001,510.5241"
       orientation="1,0"
       id="guide3325"
       inkscape:locked="false" /></sodipodi:namedview><metadata
     id="metadata7"><rdf:RDF><cc:Work
         rdf:about=""><dc:format>image/svg+xml</dc:format><dc:type
           rdf:resource="http://purl.org/dc/dcmitype/StillImage" /></cc:Work></rdf:RDF></metadata><g
     inkscape:label="Layer 1"
     inkscape:groupmode="layer"
     id="layer1"
     transform="translate(-65.224067,-173.70181)"><g
       id="g4165"
       transform="matrix(0.70710678,-0.70710678,0.70710678,0.70710678,-256.86318,384.18552)"><path
         d="m 447.81013,602.22024 c 4.03368,-3.13727 8.01133,-6.44266 11.70883,-10.14016 3.69751,-3.69757 7.00288,-7.67523 10.14015,-11.70882 l 42.24137,5.15412 c 3.80957,0.4479 7.45112,-1.96081 8.51553,-5.82641 l 16.41471,-61.23323 c 1.00848,-3.80956 -0.89632,-7.73118 -4.42581,-9.24376 L 493.2448,492.58315 c -1.34456,-10.19618 -3.92163,-20.2804 -7.89918,-29.97239 l 25.49045,-33.89393 c 2.1289,-3.1373 1.90478,-7.50707 -0.89641,-10.30825 l -44.81841,-44.81844 c -2.80111,-2.80109 -7.17097,-3.02521 -10.25221,-0.84003 l -33.89394,25.49047 c -9.692,-3.97766 -19.7201,-6.61074 -29.97231,-7.89928 l -16.63884,-39.16012 c -1.56869,-3.47337 -5.43428,-5.43418 -9.24385,-4.4258 l -61.23314,16.41479 c -3.80957,1.00839 -6.21861,4.64986 -5.8264,8.51545 l 5.0981,42.18534 c -4.03369,3.13736 -8.01135,6.44266 -11.70884,10.14024 -3.69751,3.6975 -7.00289,7.67516 -10.14016,11.70875 l -42.18535,-5.0981 c -3.80955,-0.4479 -7.45111,1.96082 -8.51552,5.82642 l -16.41471,61.23321 c -1.00846,3.80958 0.89631,7.7312 4.42581,9.24377 l 39.16012,16.63884 c 1.34447,10.19619 3.92153,20.2804 7.89919,29.97239 l -25.49048,33.89394 c -2.18492,3.08124 -1.9608,7.45102 0.84004,10.25221 l 44.81844,44.81842 c 2.80108,2.80111 7.17095,3.02523 10.25221,0.84003 l 33.89393,-25.49054 c 9.69199,3.97766 19.7201,6.61074 29.97231,7.89927 l 16.63884,39.16012 c 1.56868,3.47338 5.43427,5.43419 9.24384,4.42581 l 61.23314,-16.41471 c 3.80956,-1.00847 6.21862,-4.64995 5.8264,-8.51554 z"
         id="path620"
         sodipodi:nodetypes="csccccccccssccccccccsccccccccsscccccccc"
         style="fill:#ffffff;stroke:#03373f;stroke-width:9.4408;stroke-dasharray:none;stroke-opacity:0.968627" /><rect
         style="fill:none;fill-opacity:1;stroke:none;stroke-width:20;stroke-miterlimit:4;stroke-dasharray:none"
         id="rect5645"
         width="580"
         height="580"
         x="335.63055"
         y="-196.9404"
         transform="rotate(45)"
         ry="0"
         rx="0"
         inkscape:export-filename="C:\Users\uketmh\Documents\ModelRailway\JMRIDev\EngineDriver\res\drawable-xhdpi\flashlight_on.png"
         inkscape:export-xdpi="14.4"
         inkscape:export-ydpi="14.4" /><g
         transform="matrix(0.61871659,0.61871659,-0.61871659,0.61871659,382.8425,177.48605)"
         id="g14" /><g
         transform="matrix(0.61871659,0.61871659,-0.61871659,0.61871659,382.8425,177.48605)"
         id="g16" /><g
         transform="matrix(0.61871659,0.61871659,-0.61871659,0.61871659,382.8425,177.48605)"
         id="g18" /><g
         transform="matrix(0.61871659,0.61871659,-0.61871659,0.61871659,382.8425,177.48605)"
         id="g20" /><g
         transform="matrix(0.61871659,0.61871659,-0.61871659,0.61871659,382.8425,177.48605)"
         id="g22" /><g
         transform="matrix(0.61871659,0.61871659,-0.61871659,0.61871659,382.8425,177.48605)"
         id="g24" /><g
         transform="matrix(0.61871659,0.61871659,-0.61871659,0.61871659,382.8425,177.48605)"
         id="g26" /><g
         transform="matrix(0.61871659,0.61871659,-0.61871659,0.61871659,382.8425,177.48605)"
         id="g28" /><g
         transform="matrix(0.61871659,0.61871659,-0.61871659,0.61871659,382.8425,177.48605)"
         id="g30" /><g
         transform="matrix(0.61871659,0.61871659,-0.61871659,0.61871659,382.8425,177.48605)"
         id="g32" /><g
         transform="matrix(0.61871659,0.61871659,-0.61871659,0.61871659,382.8425,177.48605)"
         id="g34" /><g
         transform="matrix(0.61871659,0.61871659,-0.61871659,0.61871659,382.8425,177.48605)"
         id="g36" /><g
         transform="matrix(0.61871659,0.61871659,-0.61871659,0.61871659,382.8425,177.48605)"
         id="g38" /><g
         transform="matrix(0.61871659,0.61871659,-0.61871659,0.61871659,382.8425,177.48605)"
         id="g40" /><g
         transform="matrix(0.61871659,0.61871659,-0.61871659,0.61871659,382.8425,177.48605)"
         id="g42" /><text
         xml:space="preserve"
         id="text4021"
         style="font-size:14.6667px;line-height:2px;font-family:'Adobe Gothic Std';-inkscape-font-specification:'Adobe Gothic Std';letter-spacing:0px;word-spacing:0px;writing-mode:lr-tb;white-space:pre;shape-inside:url(#rect4023);display:inline;fill:none;stroke:#000000;stroke-width:1px;stroke-linecap:butt;stroke-linejoin:miter;stroke-opacity:1"
         transform="matrix(0.66291262,0.66291262,-0.66291262,0.66291262,601.21104,-47.474098)" /><g
         id="g5370"
         transform="matrix(0.25903086,0.25903086,-0.25903086,0.25903086,274.27294,241.59007)"
         style="fill:none"><rect
           id="rect2"
           stroke-linejoin="round"
           stroke-miterlimit="16"
           stroke-width="14.3637"
           stroke="#00353D"
           fill="#ffffff"
           transform="rotate(-45)"
           rx="63.718899"
           height="437.06601"
           width="437.06601"
           y="506.54724"
           x="57.163441"
           style="stroke:#00353d;stroke-opacity:0.956863" /><g
           transform="translate(1.8796397,-2.1336634)"
           id="g15"
           mask="url(#mask0-5)"><path
             style="fill:url(#paint0_linear)"
             id="path7"
             fill="url(#paint0_linear)"
             d="m 558.03,10.9856 c 7.305,6.359 311.428,260.2244 19.227,487.4164 l 94.853,87.162 49.99,11.536 61.722,-42.127 C 1014.79,279.491 624.481,0.449243 615.806,-4.43481 Z" /><path
             id="path9"
             stroke-width="10.2598"
             stroke="#00353d"
             d="m 579.281,51.6391 91.645,-38.7324 33.869,26.0143 -101.607,42.7791 16.603,28.3269 111.567,-45.0917 30.549,29.4829 -130.163,47.4038 13.282,29.483 146.765,-45.67 25.235,34.108 -158.054,45.092 2.656,39.888 186.611,-39.888 40.51,57.809 -223.136,26.592 -21.915,47.404 262.981,-19.077 v 71.684 l -284.896,-3.469 -23.908,41.045 284.233,48.56 -44.495,83.246 -279.583,-83.246" /><path
             id="path11"
             stroke-width="20.5195"
             stroke="#ffffff"
             d="M 570.647,491.57 C 862.849,264.379 565.999,11.7512 558.694,5.39221 M 616.47,-10.0282 c 8.675,4.88406 398.99,283.9262 168.016,559.4082 L 736.2,597.1" /><path
             id="path13"
             stroke-width="10.2598"
             stroke="#00353d"
             d="M 570.647,491.57 C 862.849,264.379 565.999,11.7512 558.694,5.39221 M 616.47,-10.0282 c 8.675,4.88406 398.99,283.9262 168.016,559.4082 l -44.441,45.157" /></g></g></g></g></svg>
