<?xml version="1.0" encoding="UTF-8" standalone="no"?>
<!-- Created with Inkscape (http://www.inkscape.org/) -->

<svg
   width="171.33333mm"
   height="171.33333mm"
   viewBox="0 0 607.0866 607.08659"
   id="svg2"
   version="1.1"
   inkscape:version="1.2.2 (732a01da63, 2022-12-09)"
   sodipodi:docname="ic_outline_foreground.svg"
   inkscape:export-filename="..\EX_Toolbox\src\main\res\mipmap-hdpi\ic_launcher_foreground.png"
   inkscape:export-xdpi="11.118678"
   inkscape:export-ydpi="11.118678"
   xml:space="preserve"
   xmlns:inkscape="http://www.inkscape.org/namespaces/inkscape"
   xmlns:sodipodi="http://sodipodi.sourceforge.net/DTD/sodipodi-0.dtd"
   xmlns="http://www.w3.org/2000/svg"
   xmlns:svg="http://www.w3.org/2000/svg"
   xmlns:rdf="http://www.w3.org/1999/02/22-rdf-syntax-ns#"
   xmlns:cc="http://creativecommons.org/ns#"
   xmlns:dc="http://purl.org/dc/elements/1.1/"><defs
     id="defs4"><rect
       x="462"
       y="280"
       width="171.11284"
       height="353.11285"
       id="rect2420" /><linearGradient
       id="linearGradient4155"
       inkscape:swatch="solid"><stop
         style="stop-color:#000000;stop-opacity:1;"
         offset="0"
         id="stop4157" /></linearGradient><linearGradient
       id="linearGradient4149"><stop
         style="stop-color:#000000;stop-opacity:1;"
         offset="0"
         id="stop4151" /></linearGradient><linearGradient
       id="linearGradient4139"
       inkscape:swatch="gradient"><stop
         style="stop-color:#2b2200;stop-opacity:1;"
         offset="0"
         id="stop4141" /><stop
         style="stop-color:#2b2200;stop-opacity:0;"
         offset="1"
         id="stop4143" /></linearGradient><rect
       x="720.49402"
       y="801.32397"
       width="243.95853"
       height="98.689613"
       id="rect4023" /><linearGradient
       gradientUnits="userSpaceOnUse"
       y2="597.09998"
       x2="707.41602"
       y1="-4.4348102"
       x1="707.41602"
       id="paint0_linear"><stop
         id="stop33"
         stop-color="#D3D3D3" /><stop
         id="stop35"
         stop-color="white"
         offset="1" /></linearGradient><mask
       height="599"
       width="599"
       y="21"
       x="406"
       maskUnits="userSpaceOnUse"
       mask-type="alpha"
       id="mask0-5"><rect
         id="rect4-1"
         fill="#ffffff"
         transform="rotate(-45,406.51,320.148)"
         rx="56.537102"
         height="422.702"
         width="422.702"
         y="320.14801"
         x="406.51001" /></mask></defs><sodipodi:namedview
     id="base"
     pagecolor="#ffffff"
     bordercolor="#666666"
     borderopacity="1.0"
     inkscape:pageopacity="0.0"
     inkscape:pageshadow="2"
     inkscape:zoom="2"
     inkscape:cx="284.5"
     inkscape:cy="284.5"
     inkscape:document-units="px"
     inkscape:current-layer="g4165"
     showgrid="false"
     fit-margin-top="1"
     fit-margin-left="1"
     fit-margin-right="1"
     fit-margin-bottom="1"
     units="mm"
     inkscape:window-width="2400"
     inkscape:window-height="1244"
     inkscape:window-x="2869"
     inkscape:window-y="-11"
     inkscape:window-maximized="1"
     inkscape:pagecheckerboard="0"
     inkscape:showpageshadow="0"
     inkscape:deskcolor="#d1d1d1"
     showguides="true"><sodipodi:guide
       position="139.6875,375.5241"
       orientation="1,0"
       id="guide3242"
       inkscape:locked="false" /><sodipodi:guide
       position="467.81251,428.9616"
       orientation="1,0"
       id="guide3244"
       inkscape:locked="false" /><sodipodi:guide
       position="422.81251,467.39911"
       orientation="0,-1"
       id="guide3246"
       inkscape:locked="false" /><sodipodi:guide
       position="428.43751,136.4616"
       orientation="0,-1"
       id="guide3248"
       inkscape:locked="false" /><sodipodi:guide
       position="301.87501,302.3991"
       orientation="0,-1"
       id="guide3323"
       inkscape:locked="false" /><sodipodi:guide
       position="303.75001,510.5241"
       orientation="1,0"
       id="guide3325"
       inkscape:locked="false" /></sodipodi:namedview><metadata
     id="metadata7"><rdf:RDF><cc:Work
         rdf:about=""><dc:format>image/svg+xml</dc:format><dc:type
           rdf:resource="http://purl.org/dc/dcmitype/StillImage" /></cc:Work></rdf:RDF></metadata><g
     inkscape:label="Layer 1"
     inkscape:groupmode="layer"
     id="layer1"
     transform="translate(-65.224067,-173.70181)"><g
       id="g4165"
       transform="matrix(0.70710678,-0.70710678,0.70710678,0.70710678,-256.86318,384.18552)"><path
         d="m 445.98924,601.63818 c 4.00913,-3.11817 7.96255,-6.40343 11.63755,-10.07842 3.675,-3.67506 6.96024,-7.62849 10.07841,-11.63753 l 41.98419,5.12274 c 3.78638,0.44517 7.40576,-1.94888 8.46368,-5.79094 l 16.31478,-60.86043 c 1.00234,-3.78636 -0.89087,-7.68411 -4.39886,-9.18747 l -38.9217,-16.53753 c -1.33637,-10.1341 -3.89775,-20.15693 -7.85108,-29.78991 l 25.33525,-33.68758 c 2.11595,-3.11819 1.89319,-7.46136 -0.89095,-10.24549 l -44.54555,-44.54556 c -2.78404,-2.78404 -7.1273,-3.0068 -10.18978,-0.83493 l -33.68758,25.33528 c -9.633,-3.95344 -19.60005,-6.57049 -29.78983,-7.85119 l -16.53755,-38.92169 c -1.55913,-3.45223 -5.40119,-5.4011 -9.18757,-4.39886 l -60.86033,16.31485 c -3.78637,1.00225 -6.18075,4.62155 -5.79093,8.46361 l 5.06707,41.9285 c -4.00914,3.11826 -7.96258,6.40343 -11.63756,10.07851 -3.675,3.67498 -6.96026,7.62842 -10.07842,11.63746 l -41.92851,-5.06707 c -3.78636,-0.44517 -7.40575,1.94889 -8.46368,5.79095 l -16.31478,60.86041 c -1.00232,3.78639 0.89086,7.68413 4.39887,9.18749 l 38.9217,16.53754 c 1.33629,10.1341 3.89766,20.15692 7.8511,29.78991 l -25.33529,33.68758 c -2.17162,3.06248 -1.94886,7.40566 0.83493,10.18979 l 44.54557,44.54555 c 2.78403,2.78406 7.12729,3.00682 10.18979,0.83492 l 33.68758,-25.33535 c 9.63298,3.95344 19.60004,6.5705 29.78983,7.85118 l 16.53753,38.9217 c 1.55913,3.45224 5.40119,5.40111 9.18757,4.39886 l 60.86033,-16.31476 c 3.78636,-1.00233 6.18076,-4.62164 5.79092,-8.4637 z"
         id="path620"
         sodipodi:nodetypes="csccccccccssccccccccsccccccccsscccccccc"
         style="fill:none;stroke:#00a3b9;stroke-width:16.1957;stroke-dasharray:none;stroke-opacity:1" /><rect
         style="fill:none;fill-opacity:1;stroke:none;stroke-width:20;stroke-miterlimit:4;stroke-dasharray:none"
         id="rect5645"
         width="580"
         height="580"
         x="335.63055"
         y="-196.9404"
         transform="rotate(45)"
         ry="0"
         rx="0"
         inkscape:export-filename="C:\Users\uketmh\Documents\ModelRailway\JMRIDev\EngineDriver\res\drawable-xhdpi\flashlight_on.png"
         inkscape:export-xdpi="14.4"
         inkscape:export-ydpi="14.4" /><g
         transform="matrix(0.61871659,0.61871659,-0.61871659,0.61871659,382.8425,177.48605)"
         id="g14" /><g
         transform="matrix(0.61871659,0.61871659,-0.61871659,0.61871659,382.8425,177.48605)"
         id="g16" /><g
         transform="matrix(0.61871659,0.61871659,-0.61871659,0.61871659,382.8425,177.48605)"
         id="g18" /><g
         transform="matrix(0.61871659,0.61871659,-0.61871659,0.61871659,382.8425,177.48605)"
         id="g20" /><g
         transform="matrix(0.61871659,0.61871659,-0.61871659,0.61871659,382.8425,177.48605)"
         id="g22" /><g
         transform="matrix(0.61871659,0.61871659,-0.61871659,0.61871659,382.8425,177.48605)"
         id="g24" /><g
         transform="matrix(0.61871659,0.61871659,-0.61871659,0.61871659,382.8425,177.48605)"
         id="g26" /><g
         transform="matrix(0.61871659,0.61871659,-0.61871659,0.61871659,382.8425,177.48605)"
         id="g28" /><g
         transform="matrix(0.61871659,0.61871659,-0.61871659,0.61871659,382.8425,177.48605)"
         id="g30" /><g
         transform="matrix(0.61871659,0.61871659,-0.61871659,0.61871659,382.8425,177.48605)"
         id="g32" /><g
         transform="matrix(0.61871659,0.61871659,-0.61871659,0.61871659,382.8425,177.48605)"
         id="g34" /><g
         transform="matrix(0.61871659,0.61871659,-0.61871659,0.61871659,382.8425,177.48605)"
         id="g36" /><g
         transform="matrix(0.61871659,0.61871659,-0.61871659,0.61871659,382.8425,177.48605)"
         id="g38" /><g
         transform="matrix(0.61871659,0.61871659,-0.61871659,0.61871659,382.8425,177.48605)"
         id="g40" /><g
         transform="matrix(0.61871659,0.61871659,-0.61871659,0.61871659,382.8425,177.48605)"
         id="g42" /><text
         xml:space="preserve"
         id="text4021"
         style="font-size:14.6667px;line-height:2px;font-family:'Adobe Gothic Std';-inkscape-font-specification:'Adobe Gothic Std';letter-spacing:0px;word-spacing:0px;writing-mode:lr-tb;white-space:pre;shape-inside:url(#rect4023);display:inline;fill:none;stroke:#000000;stroke-width:1px;stroke-linecap:butt;stroke-linejoin:miter;stroke-opacity:1"
         transform="matrix(0.66291262,0.66291262,-0.66291262,0.66291262,601.21104,-47.474098)" /><g
         id="g5370"
         transform="matrix(0.25903086,0.25903086,-0.25903086,0.25903086,273.63062,242.23239)"
         style="fill:none"><rect
           id="rect2"
           stroke-linejoin="round"
           stroke-miterlimit="16"
           stroke-width="14.3637"
           stroke="#00353D"
           fill="#ffffff"
           transform="rotate(-45)"
           rx="63.718899"
           height="437.06601"
           width="437.06601"
           y="506.54724"
           x="57.163441"
           style="stroke:#00353d;stroke-opacity:0.956863" /><g
           transform="translate(1.8796397,-2.1336634)"
           id="g15"
           mask="url(#mask0-5)"><path
             style="fill:url(#paint0_linear)"
             id="path7"
             fill="url(#paint0_linear)"
             d="m 558.03,10.9856 c 7.305,6.359 311.428,260.2244 19.227,487.4164 l 94.853,87.162 49.99,11.536 61.722,-42.127 C 1014.79,279.491 624.481,0.449243 615.806,-4.43481 Z" /><path
             id="path9"
             stroke-width="10.2598"
             stroke="#00353d"
             d="m 579.281,51.6391 91.645,-38.7324 33.869,26.0143 -101.607,42.7791 16.603,28.3269 111.567,-45.0917 30.549,29.4829 -130.163,47.4038 13.282,29.483 146.765,-45.67 25.235,34.108 -158.054,45.092 2.656,39.888 186.611,-39.888 40.51,57.809 -223.136,26.592 -21.915,47.404 262.981,-19.077 v 71.684 l -284.896,-3.469 -23.908,41.045 284.233,48.56 -44.495,83.246 -279.583,-83.246" /><path
             id="path11"
             stroke-width="20.5195"
             stroke="#ffffff"
             d="M 570.647,491.57 C 862.849,264.379 565.999,11.7512 558.694,5.39221 M 616.47,-10.0282 c 8.675,4.88406 398.99,283.9262 168.016,559.4082 L 736.2,597.1" /><path
             id="path13"
             stroke-width="10.2598"
             stroke="#00353d"
             d="M 570.647,491.57 C 862.849,264.379 565.999,11.7512 558.694,5.39221 M 616.47,-10.0282 c 8.675,4.88406 398.99,283.9262 168.016,559.4082 l -44.441,45.157" /></g></g></g></g></svg>
