<?xml version="1.0" encoding="UTF-8" standalone="no"?>
<!-- Created with Inkscape (http://www.inkscape.org/) -->

<svg
   width="171.33333mm"
   height="171.33333mm"
   viewBox="0 0 607.0866 607.08659"
   id="svg2"
   version="1.1"
   inkscape:version="1.2.1 (9c6d41e410, 2022-07-14)"
   sodipodi:docname="icon.svg"
   inkscape:export-filename="..\EX_Toolbox\src\main\res\drawable\icon_xl.png"
   inkscape:export-xdpi="21.6"
   inkscape:export-ydpi="21.6"
   xml:space="preserve"
   xmlns:inkscape="http://www.inkscape.org/namespaces/inkscape"
   xmlns:sodipodi="http://sodipodi.sourceforge.net/DTD/sodipodi-0.dtd"
   xmlns="http://www.w3.org/2000/svg"
   xmlns:svg="http://www.w3.org/2000/svg"
   xmlns:rdf="http://www.w3.org/1999/02/22-rdf-syntax-ns#"
   xmlns:cc="http://creativecommons.org/ns#"
   xmlns:dc="http://purl.org/dc/elements/1.1/"><defs
     id="defs4"><rect
       x="462"
       y="280"
       width="171.11284"
       height="353.11285"
       id="rect2420" /><linearGradient
       id="linearGradient4155"
       inkscape:swatch="solid"><stop
         style="stop-color:#000000;stop-opacity:1;"
         offset="0"
         id="stop4157" /></linearGradient><linearGradient
       id="linearGradient4149"><stop
         style="stop-color:#000000;stop-opacity:1;"
         offset="0"
         id="stop4151" /></linearGradient><linearGradient
       id="linearGradient4139"
       inkscape:swatch="gradient"><stop
         style="stop-color:#2b2200;stop-opacity:1;"
         offset="0"
         id="stop4141" /><stop
         style="stop-color:#2b2200;stop-opacity:0;"
         offset="1"
         id="stop4143" /></linearGradient><rect
       x="720.49402"
       y="801.32397"
       width="243.95853"
       height="98.689613"
       id="rect4023" /><linearGradient
       gradientUnits="userSpaceOnUse"
       y2="597.09998"
       x2="707.41602"
       y1="-4.4348102"
       x1="707.41602"
       id="paint0_linear"><stop
         id="stop33"
         stop-color="#D3D3D3" /><stop
         id="stop35"
         stop-color="white"
         offset="1" /></linearGradient><mask
       height="599"
       width="599"
       y="21"
       x="406"
       maskUnits="userSpaceOnUse"
       mask-type="alpha"
       id="mask0-5"><rect
         id="rect4-1"
         fill="#ffffff"
         transform="rotate(-45,406.51,320.148)"
         rx="56.537102"
         height="422.702"
         width="422.702"
         y="320.14801"
         x="406.51001" /></mask><mask
       height="599"
       width="599"
       y="21"
       x="406"
       maskUnits="userSpaceOnUse"
       mask-type="alpha"
       id="mask0-5-5"><rect
         id="rect4-1-6"
         fill="#ffffff"
         transform="rotate(-45,406.51,320.148)"
         rx="56.537102"
         height="422.702"
         width="422.702"
         y="320.14801"
         x="406.51001" /></mask><linearGradient
       gradientUnits="userSpaceOnUse"
       y2="597.09998"
       x2="707.41602"
       y1="-4.4348102"
       x1="707.41602"
       id="paint0_linear-2"><stop
         id="stop33-6"
         stop-color="#D3D3D3" /><stop
         id="stop35-5"
         stop-color="white"
         offset="1" /></linearGradient></defs><sodipodi:namedview
     id="base"
     pagecolor="#ffffff"
     bordercolor="#666666"
     borderopacity="1.0"
     inkscape:pageopacity="0.0"
     inkscape:pageshadow="2"
     inkscape:zoom="0.70710678"
     inkscape:cx="119.50105"
     inkscape:cy="410.82904"
     inkscape:document-units="px"
     inkscape:current-layer="g4165"
     showgrid="false"
     fit-margin-top="1"
     fit-margin-left="1"
     fit-margin-right="1"
     fit-margin-bottom="1"
     units="mm"
     inkscape:window-width="1600"
     inkscape:window-height="816"
     inkscape:window-x="-8"
     inkscape:window-y="-7"
     inkscape:window-maximized="1"
     inkscape:pagecheckerboard="0"
     inkscape:showpageshadow="0"
     inkscape:deskcolor="#d1d1d1" /><metadata
     id="metadata7"><rdf:RDF><cc:Work
         rdf:about=""><dc:format>image/svg+xml</dc:format><dc:type
           rdf:resource="http://purl.org/dc/dcmitype/StillImage" /></cc:Work></rdf:RDF></metadata><g
     inkscape:label="Layer 1"
     inkscape:groupmode="layer"
     id="layer1"
     transform="translate(-65.224067,-173.70181)"><g
       id="g4165"
       transform="matrix(0.70710678,-0.70710678,0.70710678,0.70710678,-256.86318,384.18552)"><rect
         style="fill:none;fill-opacity:1;stroke:#ffffff;stroke-width:20.00000007;stroke-miterlimit:4;stroke-dasharray:none"
         id="rect5645"
         width="580"
         height="580"
         x="335.63055"
         y="-196.9404"
         transform="matrix(0.70710678,0.70710678,-0.70710678,0.70710678,0,0)"
         ry="95"
         rx="95"
         inkscape:export-filename="C:\Users\uketmh\Documents\ModelRailway\JMRIDev\EngineDriver\res\drawable-xhdpi\flashlight_on.png"
         inkscape:export-xdpi="14.4"
         inkscape:export-ydpi="14.4" /><g
         transform="matrix(0.61871659,0.61871659,-0.61871659,0.61871659,382.8425,177.48605)"
         id="g14" /><g
         transform="matrix(0.61871659,0.61871659,-0.61871659,0.61871659,382.8425,177.48605)"
         id="g16" /><g
         transform="matrix(0.61871659,0.61871659,-0.61871659,0.61871659,382.8425,177.48605)"
         id="g18" /><g
         transform="matrix(0.61871659,0.61871659,-0.61871659,0.61871659,382.8425,177.48605)"
         id="g20" /><g
         transform="matrix(0.61871659,0.61871659,-0.61871659,0.61871659,382.8425,177.48605)"
         id="g22" /><g
         transform="matrix(0.61871659,0.61871659,-0.61871659,0.61871659,382.8425,177.48605)"
         id="g24" /><g
         transform="matrix(0.61871659,0.61871659,-0.61871659,0.61871659,382.8425,177.48605)"
         id="g26" /><g
         transform="matrix(0.61871659,0.61871659,-0.61871659,0.61871659,382.8425,177.48605)"
         id="g28" /><g
         transform="matrix(0.61871659,0.61871659,-0.61871659,0.61871659,382.8425,177.48605)"
         id="g30" /><g
         transform="matrix(0.61871659,0.61871659,-0.61871659,0.61871659,382.8425,177.48605)"
         id="g32" /><g
         transform="matrix(0.61871659,0.61871659,-0.61871659,0.61871659,382.8425,177.48605)"
         id="g34" /><g
         transform="matrix(0.61871659,0.61871659,-0.61871659,0.61871659,382.8425,177.48605)"
         id="g36" /><g
         transform="matrix(0.61871659,0.61871659,-0.61871659,0.61871659,382.8425,177.48605)"
         id="g38" /><g
         transform="matrix(0.61871659,0.61871659,-0.61871659,0.61871659,382.8425,177.48605)"
         id="g40" /><g
         transform="matrix(0.61871659,0.61871659,-0.61871659,0.61871659,382.8425,177.48605)"
         id="g42" /><text
         xml:space="preserve"
         id="text4021"
         style="font-size:14.6667px;line-height:2px;font-family:'Adobe Gothic Std';-inkscape-font-specification:'Adobe Gothic Std';letter-spacing:0px;word-spacing:0px;writing-mode:lr-tb;white-space:pre;shape-inside:url(#rect4023);display:inline;fill:none;stroke:#000000;stroke-width:1px;stroke-linecap:butt;stroke-linejoin:miter;stroke-opacity:1"
         transform="matrix(0.66291262,0.66291262,-0.66291262,0.66291262,601.21104,-47.474098)" /><path
         d="m 488.2343,654.86053 c 6.28901,-4.89139 12.49065,-10.0449 18.25551,-15.80975 5.76487,-5.76497 10.91834,-11.96663 15.80973,-18.25549 l 65.85946,8.03591 c 5.93959,0.69833 11.61721,-3.05714 13.27675,-9.08408 l 25.59255,-95.4701 c 1.57234,-5.93958 -1.39748,-12.05386 -6.90039,-14.41216 l -61.0554,-25.94197 c -2.09633,-15.89709 -6.1143,-31.61963 -12.31579,-46.73062 l 39.74274,-52.84479 c 3.31921,-4.89144 2.96978,-11.70445 -1.39762,-16.07182 l -69.87738,-69.87744 c -4.36728,-4.36724 -11.18043,-4.71667 -15.98445,-1.3097 l -52.84481,39.74276 c -15.11101,-6.20166 -30.74604,-10.30696 -46.73049,-12.31595 l -25.94198,-61.05541 c -2.44579,-5.41542 -8.47272,-8.47256 -14.4123,-6.90037 l -95.46996,25.59266 c -5.93959,1.57221 -9.69557,7.24971 -9.08407,13.27664 l 7.94857,65.77211 c -6.28903,4.89152 -12.49069,10.04489 -18.25552,15.80987 -5.76488,5.76485 -10.91837,11.96651 -15.80975,18.25537 l -65.77213,-7.94856 c -5.93955,-0.69833 -11.61718,3.05715 -13.27674,9.0841 l -25.59253,95.47007 c -1.57232,5.9396 1.39745,12.05389 6.90038,14.41216 l 61.05541,25.94199 c 2.0962,15.89711 6.11415,31.61963 12.31581,46.73062 l -39.74278,52.84481 c -3.40656,4.80402 -3.05712,11.61705 1.30972,15.98445 l 69.87744,69.8774 c 4.36722,4.36727 11.18038,4.7167 15.98445,1.30971 l 52.84478,-39.74287 c 15.11099,6.20165 30.74605,10.30695 46.7305,12.31592 l 25.94199,61.05543 c 2.44576,5.41542 8.47268,8.47256 14.41227,6.90038 l 95.46996,-25.59255 c 5.93958,-1.57233 9.69559,-7.24984 9.08407,-13.27676 z"
         id="path620"
         sodipodi:nodetypes="csccccccccssccccccccsccccccccsscccccccc"
         style="fill:#ffffff;stroke:#03373f;stroke-width:14.7194;stroke-dasharray:none;stroke-opacity:0.968627" /><g
         id="g5370"
         transform="matrix(0.40386081,0.40386081,-0.40386081,0.40386081,217.66859,92.593964)"
         style="fill:none"><rect
           id="rect2"
           stroke-linejoin="round"
           stroke-miterlimit="16"
           stroke-width="14.3637"
           stroke="#00353D"
           fill="#ffffff"
           transform="rotate(-45)"
           rx="63.718899"
           height="437.06601"
           width="437.06601"
           y="506.54724"
           x="57.163441"
           style="stroke:#00353d;stroke-opacity:0.956863" /><g
           transform="translate(1.8796397,-2.1336634)"
           id="g15"
           mask="url(#mask0-5-5)"><path
             style="fill:url(#paint0_linear-2)"
             id="path7"
             fill="url(#paint0_linear)"
             d="m 558.03,10.9856 c 7.305,6.359 311.428,260.2244 19.227,487.4164 l 94.853,87.162 49.99,11.536 61.722,-42.127 C 1014.79,279.491 624.481,0.449243 615.806,-4.43481 Z" /><path
             id="path9"
             stroke-width="10.2598"
             stroke="#00353d"
             d="m 579.281,51.6391 91.645,-38.7324 33.869,26.0143 -101.607,42.7791 16.603,28.3269 111.567,-45.0917 30.549,29.4829 -130.163,47.4038 13.282,29.483 146.765,-45.67 25.235,34.108 -158.054,45.092 2.656,39.888 186.611,-39.888 40.51,57.809 -223.136,26.592 -21.915,47.404 262.981,-19.077 v 71.684 l -284.896,-3.469 -23.908,41.045 284.233,48.56 -44.495,83.246 -279.583,-83.246" /><path
             id="path11"
             stroke-width="20.5195"
             stroke="#ffffff"
             d="M 570.647,491.57 C 862.849,264.379 565.999,11.7512 558.694,5.39221 M 616.47,-10.0282 c 8.675,4.88406 398.99,283.9262 168.016,559.4082 L 736.2,597.1" /><path
             id="path13"
             stroke-width="10.2598"
             stroke="#00353d"
             d="M 570.647,491.57 C 862.849,264.379 565.999,11.7512 558.694,5.39221 M 616.47,-10.0282 c 8.675,4.88406 398.99,283.9262 168.016,559.4082 l -44.441,45.157" /></g></g></g></g></svg>
