<?xml version="1.0" encoding="UTF-8" standalone="no"?>
<!-- Created with Inkscape (http://www.inkscape.org/) -->

<svg
   width="171.33333mm"
   height="171.33333mm"
   viewBox="0 0 607.0866 607.08659"
   id="svg2"
   version="1.1"
   inkscape:version="1.2.2 (732a01da63, 2022-12-09)"
   sodipodi:docname="icon_vector_ultra.svg"
   inkscape:export-filename="..\EX_Toolbox\src\main\res\mipmap-xxhdpi\ic_launcher.png"
   inkscape:export-xdpi="29.05681"
   inkscape:export-ydpi="29.05681"
   xml:space="preserve"
   xmlns:inkscape="http://www.inkscape.org/namespaces/inkscape"
   xmlns:sodipodi="http://sodipodi.sourceforge.net/DTD/sodipodi-0.dtd"
   xmlns:xlink="http://www.w3.org/1999/xlink"
   xmlns="http://www.w3.org/2000/svg"
   xmlns:svg="http://www.w3.org/2000/svg"
   xmlns:rdf="http://www.w3.org/1999/02/22-rdf-syntax-ns#"
   xmlns:cc="http://creativecommons.org/ns#"
   xmlns:dc="http://purl.org/dc/elements/1.1/"><defs
     id="defs4"><rect
       x="462"
       y="280"
       width="171.11284"
       height="353.11285"
       id="rect2420" /><linearGradient
       id="linearGradient4155"
       inkscape:swatch="solid"><stop
         style="stop-color:#000000;stop-opacity:1;"
         offset="0"
         id="stop4157" /></linearGradient><linearGradient
       id="linearGradient4149"><stop
         style="stop-color:#000000;stop-opacity:1;"
         offset="0"
         id="stop4151" /></linearGradient><linearGradient
       id="linearGradient4139"
       inkscape:swatch="gradient"><stop
         style="stop-color:#2b2200;stop-opacity:1;"
         offset="0"
         id="stop4141" /><stop
         style="stop-color:#2b2200;stop-opacity:0;"
         offset="1"
         id="stop4143" /></linearGradient><rect
       x="720.49402"
       y="801.32397"
       width="243.95853"
       height="98.689613"
       id="rect4023" /><linearGradient
       gradientUnits="userSpaceOnUse"
       y2="597.09998"
       x2="707.41602"
       y1="-4.4348102"
       x1="707.41602"
       id="paint0_linear"><stop
         id="stop33"
         stop-color="#D3D3D3" /><stop
         id="stop35"
         stop-color="white"
         offset="1" /></linearGradient><mask
       height="599"
       width="599"
       y="21"
       x="406"
       maskUnits="userSpaceOnUse"
       mask-type="alpha"
       id="mask0-5"><rect
         id="rect4-1"
         fill="#ffffff"
         transform="rotate(-45,406.51,320.148)"
         rx="56.537102"
         height="422.702"
         width="422.702"
         y="320.14801"
         x="406.51001" /></mask><mask
       height="599"
       width="599"
       y="21"
       x="406"
       maskUnits="userSpaceOnUse"
       mask-type="alpha"
       id="mask0-5-5"><rect
         id="rect4-1-6"
         fill="#ffffff"
         transform="rotate(-45,406.51,320.148)"
         rx="56.537102"
         height="422.702"
         width="422.702"
         y="320.14801"
         x="406.51001" /></mask><linearGradient
       gradientUnits="userSpaceOnUse"
       y2="597.09998"
       x2="707.41602"
       y1="-4.4348102"
       x1="707.41602"
       id="paint0_linear-2"><stop
         id="stop33-6"
         stop-color="#D3D3D3" /><stop
         id="stop35-5"
         stop-color="white"
         offset="1" /></linearGradient><linearGradient
       inkscape:collect="always"
       xlink:href="#linearGradient895"
       id="linearGradient897"
       x1="325.63055"
       y1="93.059601"
       x2="925.63055"
       y2="93.059601"
       gradientUnits="userSpaceOnUse"
       gradientTransform="matrix(1.0382092,0,0,1.0376847,-23.894151,-3.3441896)" /><linearGradient
       inkscape:collect="always"
       id="linearGradient895"><stop
         style="stop-color:#181818;stop-opacity:1;"
         offset="0"
         id="stop891" /><stop
         style="stop-color:#303030;stop-opacity:1;"
         offset="1"
         id="stop893" /></linearGradient><linearGradient
       inkscape:collect="always"
       xlink:href="#linearGradient8256"
       id="linearGradient8258"
       x1="324.38055"
       y1="93.059616"
       x2="926.88055"
       y2="93.059616"
       gradientUnits="userSpaceOnUse"
       gradientTransform="matrix(1.0058999,0,0,1.0053916,-3.6804044,-0.33900925)" /><linearGradient
       inkscape:collect="always"
       id="linearGradient8256"><stop
         style="stop-color:#808080;stop-opacity:1;"
         offset="0"
         id="stop8254" /><stop
         style="stop-color:#404040;stop-opacity:1;"
         offset="1"
         id="stop8252" /></linearGradient></defs><sodipodi:namedview
     id="base"
     pagecolor="#ffffff"
     bordercolor="#666666"
     borderopacity="1.0"
     inkscape:pageopacity="0.0"
     inkscape:pageshadow="2"
     inkscape:zoom="0.25"
     inkscape:cx="766"
     inkscape:cy="356"
     inkscape:document-units="px"
     inkscape:current-layer="g4165"
     showgrid="false"
     fit-margin-top="1"
     fit-margin-left="1"
     fit-margin-right="1"
     fit-margin-bottom="1"
     units="mm"
     inkscape:window-width="2400"
     inkscape:window-height="1244"
     inkscape:window-x="2869"
     inkscape:window-y="-11"
     inkscape:window-maximized="1"
     inkscape:pagecheckerboard="0"
     inkscape:showpageshadow="0"
     inkscape:deskcolor="#d1d1d1" /><metadata
     id="metadata7"><rdf:RDF><cc:Work
         rdf:about=""><dc:format>image/svg+xml</dc:format><dc:type
           rdf:resource="http://purl.org/dc/dcmitype/StillImage" /></cc:Work></rdf:RDF></metadata><g
     inkscape:label="Layer 1"
     inkscape:groupmode="layer"
     id="layer1"
     transform="translate(-65.224067,-173.70181)"><g
       id="g4165"
       transform="matrix(0.70710678,-0.70710678,0.70710678,0.70710678,-256.86318,384.18552)"><rect
         style="fill:url(#linearGradient897);fill-opacity:1;stroke:url(#linearGradient8258);stroke-width:3.8923;stroke-miterlimit:4;stroke-dasharray:none;stroke-opacity:1"
         id="rect5645"
         width="602.16132"
         height="601.85712"
         x="324.56058"
         y="-207.70628"
         ry="70.400887"
         rx="70.436462"
         inkscape:export-filename="C:\Users\uketmh\Documents\ModelRailway\JMRIDev\EngineDriver\res\drawable-xhdpi\flashlight_on.png"
         inkscape:export-xdpi="14.4"
         inkscape:export-ydpi="14.4"
         transform="rotate(45)" /><path
         d="m 488.69605,656.41003 c 6.30861,-4.90663 12.52958,-10.0762 18.31241,-15.85903 5.78284,-5.78293 10.95238,-12.00393 15.85902,-18.31239 l 66.06476,8.06096 c 5.9581,0.70051 11.65342,-3.06668 13.31814,-9.11241 l 25.6723,-95.7677 c 1.57725,-5.95808 -1.40183,-12.09142 -6.92188,-14.45707 l -61.24572,-26.02284 c -2.10286,-15.94665 -6.13337,-31.7182 -12.35418,-46.87629 l 39.8666,-53.00951 c 3.32959,-4.90668 2.97906,-11.74093 -1.40196,-16.12191 l -70.0952,-70.09525 c -4.38088,-4.38085 -11.21527,-4.73138 -16.03428,-1.31381 l -53.00952,39.86666 c -15.15812,-6.22099 -30.84189,-10.33908 -46.87617,-12.35434 l -26.02286,-61.24574 c -2.4534,-5.43228 -8.49911,-8.49896 -14.45721,-6.92188 l -95.76754,25.67245 c -5.95811,1.57711 -9.7258,7.2723 -9.1124,13.31801 l 7.97334,65.97714 c -6.30861,4.90677 -12.52961,10.07619 -18.31243,15.85914 -5.78283,5.78284 -10.95239,12.00383 -15.85901,18.31229 l -65.97715,-7.97333 c -5.95807,-0.70052 -11.6534,3.06669 -13.31813,9.11241 l -25.6723,95.76765 c -1.57722,5.95812 1.4018,12.09147 6.92187,14.4571 l 61.24575,26.02285 c 2.10272,15.94667 6.1332,31.71821 12.35419,46.8763 l -39.86666,53.00952 c -3.41718,4.81901 -3.06667,11.65326 1.31381,16.03427 l 70.09524,70.09523 c 4.38084,4.38089 11.21523,4.7314 16.03428,1.3138 l 53.00951,-39.86677 c 15.15809,6.221 30.8419,10.33909 46.87616,12.35432 l 26.02286,61.24575 c 2.4534,5.4323 8.4991,8.49897 14.4572,6.92188 l 95.76755,-25.67232 c 5.95808,-1.57723 9.72582,-7.27243 9.11239,-13.31815 z"
         id="path620-6"
         sodipodi:nodetypes="csccccccccssccccccccsccccccccsscccccccc"
         style="fill:#ffffff;stroke:#00a3b9;stroke-width:24.63000056;stroke-dasharray:none;stroke-opacity:1"
         inkscape:export-filename="..\EX_Toolbox\src\main\res\drawable-xxxhdpi\path620-6.png"
         inkscape:export-xdpi="29.05681"
         inkscape:export-ydpi="29.05681" /><g
         transform="matrix(0.61871659,0.61871659,-0.61871659,0.61871659,382.8425,177.48605)"
         id="g14" /><g
         transform="matrix(0.61871659,0.61871659,-0.61871659,0.61871659,382.8425,177.48605)"
         id="g16" /><g
         transform="matrix(0.61871659,0.61871659,-0.61871659,0.61871659,382.8425,177.48605)"
         id="g18" /><g
         transform="matrix(0.61871659,0.61871659,-0.61871659,0.61871659,382.8425,177.48605)"
         id="g20" /><g
         transform="matrix(0.61871659,0.61871659,-0.61871659,0.61871659,382.8425,177.48605)"
         id="g22" /><g
         transform="matrix(0.61871659,0.61871659,-0.61871659,0.61871659,382.8425,177.48605)"
         id="g24" /><g
         transform="matrix(0.61871659,0.61871659,-0.61871659,0.61871659,382.8425,177.48605)"
         id="g26" /><g
         transform="matrix(0.61871659,0.61871659,-0.61871659,0.61871659,382.8425,177.48605)"
         id="g28" /><g
         transform="matrix(0.61871659,0.61871659,-0.61871659,0.61871659,382.8425,177.48605)"
         id="g30" /><g
         transform="matrix(0.61871659,0.61871659,-0.61871659,0.61871659,382.8425,177.48605)"
         id="g32" /><g
         transform="matrix(0.61871659,0.61871659,-0.61871659,0.61871659,382.8425,177.48605)"
         id="g34" /><g
         transform="matrix(0.61871659,0.61871659,-0.61871659,0.61871659,382.8425,177.48605)"
         id="g36" /><g
         transform="matrix(0.61871659,0.61871659,-0.61871659,0.61871659,382.8425,177.48605)"
         id="g38" /><g
         transform="matrix(0.61871659,0.61871659,-0.61871659,0.61871659,382.8425,177.48605)"
         id="g40" /><g
         transform="matrix(0.61871659,0.61871659,-0.61871659,0.61871659,382.8425,177.48605)"
         id="g42" /><text
         xml:space="preserve"
         id="text4021"
         style="font-size:14.6667px;line-height:2px;font-family:'Adobe Gothic Std';-inkscape-font-specification:'Adobe Gothic Std';letter-spacing:0px;word-spacing:0px;writing-mode:lr-tb;white-space:pre;shape-inside:url(#rect4023);display:inline;fill:none;stroke:#000000;stroke-width:1px;stroke-linecap:butt;stroke-linejoin:miter;stroke-opacity:1"
         transform="matrix(0.66291262,0.66291262,-0.66291262,0.66291262,601.21104,-47.474098)" /><g
         id="g5370"
         transform="matrix(0.40386081,0.40386081,-0.40386081,0.40386081,218.99443,93.919788)"
         style="fill:none"><rect
           id="rect2"
           stroke-linejoin="round"
           stroke-miterlimit="16"
           stroke-width="14.3637"
           stroke="#00353D"
           fill="#ffffff"
           transform="rotate(-45)"
           rx="63.718899"
           height="437.06601"
           width="437.06601"
           y="506.54724"
           x="57.163441"
           style="stroke:#00353d;stroke-opacity:0.956863" /><g
           transform="translate(1.8796397,-2.1336634)"
           id="g15"
           mask="url(#mask0-5-5)"><path
             style="fill:url(#paint0_linear-2)"
             id="path7"
             fill="url(#paint0_linear)"
             d="m 558.03,10.9856 c 7.305,6.359 311.428,260.2244 19.227,487.4164 l 94.853,87.162 49.99,11.536 61.722,-42.127 C 1014.79,279.491 624.481,0.449243 615.806,-4.43481 Z" /><path
             id="path9"
             stroke-width="10.2598"
             stroke="#00353d"
             d="m 579.281,51.6391 91.645,-38.7324 33.869,26.0143 -101.607,42.7791 16.603,28.3269 111.567,-45.0917 30.549,29.4829 -130.163,47.4038 13.282,29.483 146.765,-45.67 25.235,34.108 -158.054,45.092 2.656,39.888 186.611,-39.888 40.51,57.809 -223.136,26.592 -21.915,47.404 262.981,-19.077 v 71.684 l -284.896,-3.469 -23.908,41.045 284.233,48.56 -44.495,83.246 -279.583,-83.246" /><path
             id="path11"
             stroke-width="20.5195"
             stroke="#ffffff"
             d="M 570.647,491.57 C 862.849,264.379 565.999,11.7512 558.694,5.39221 M 616.47,-10.0282 c 8.675,4.88406 398.99,283.9262 168.016,559.4082 L 736.2,597.1" /><path
             id="path13"
             stroke-width="10.2598"
             stroke="#00353d"
             d="M 570.647,491.57 C 862.849,264.379 565.999,11.7512 558.694,5.39221 M 616.47,-10.0282 c 8.675,4.88406 398.99,283.9262 168.016,559.4082 l -44.441,45.157" /></g></g></g></g></svg>
