<?xml version="1.0" encoding="UTF-8" standalone="no"?>
<svg
   height="24px"
   viewBox="0 0 24 24"
   width="24px"
   fill="#000000"
   version="1.1"
   id="svg6"
   sodipodi:docname="category_sensor_lack.svg"
   inkscape:version="1.2.2 (732a01da63, 2022-12-09)"
   xmlns:inkscape="http://www.inkscape.org/namespaces/inkscape"
   xmlns:sodipodi="http://sodipodi.sourceforge.net/DTD/sodipodi-0.dtd"
   xmlns="http://www.w3.org/2000/svg"
   xmlns:svg="http://www.w3.org/2000/svg">
  <defs
     id="defs10" />
  <sodipodi:namedview
     id="namedview8"
     pagecolor="#505050"
     bordercolor="#eeeeee"
     borderopacity="1"
     inkscape:showpageshadow="0"
     inkscape:pageopacity="0"
     inkscape:pagecheckerboard="0"
     inkscape:deskcolor="#505050"
     showgrid="false"
     inkscape:zoom="19.121346"
     inkscape:cx="13.675815"
     inkscape:cy="17.728877"
     inkscape:window-width="1600"
     inkscape:window-height="829"
     inkscape:window-x="1912"
     inkscape:window-y="177"
     inkscape:window-maximized="1"
     inkscape:current-layer="svg6" />
  <path
     d="M0 0h24v24H0z"
     fill="none"
     id="path2" />
  <path
     d="M 4.5572134,19.477689 Q 3.1437703,18.038046 2.3192235,16.140328 1.4946767,14.242611 1.4946767,12.070058 q 0,-2.1987344 0.8245468,-4.0964544 0.8245468,-1.8977142 2.2379899,-3.3111908 l 1.4919549,1.491998 Q 4.8975032,7.3061286 4.243051,8.8243066 3.588709,10.342476 3.588709,12.070058 q 0,1.753747 0.654342,3.271916 0.6544522,1.518176 1.8061173,2.643715 z M 7.514986,16.519867 Q 6.677378,15.656077 6.1800597,14.517451 5.6827414,13.378818 5.6827414,12.070058 q 0,-1.334956 0.4973183,-2.4735834 0.4973183,-1.138628 1.3349263,-1.976241 l 1.4920704,1.492003 q -0.5759456,0.575849 -0.9030591,1.3349414 -0.3272285,0.759086 -0.3272285,1.62288 0,0.863778 0.3272285,1.622865 0.3271135,0.759092 0.9030591,1.334946 z m 4.449847,-2.355777 q -0.86375,0 -1.478888,-0.615124 -0.6151486,-0.61513 -0.6151486,-1.478908 0,-0.863794 0.6151486,-1.478913 0.615138,-0.6151204 1.478888,-0.6151204 0.863746,0 1.478889,0.6151204 0.615144,0.615119 0.615144,1.478913 0,0.863778 -0.615144,1.478908 -0.615143,0.615124 -1.478889,0.615124 z m 4.449843,2.355777 -1.49207,-1.491998 q 0.575945,-0.575854 0.903059,-1.334946 0.327228,-0.759087 0.327228,-1.622865 0,-0.863794 -0.327228,-1.62288 -0.327114,-0.7590924 -0.903059,-1.3349414 l 1.49207,-1.492003 q 0.837608,0.837613 1.334936,1.976241 0.497314,1.1386274 0.497314,2.4735834 0,1.30876 -0.497314,2.447393 -0.497328,1.138626 -1.334936,2.002416 z m 2.957778,2.957822 -1.49196,-1.492 q 1.15166,-1.151717 1.806122,-2.669886 0.654337,-1.518178 0.654337,-3.245745 0,-1.753762 -0.654337,-3.2719264 -0.654462,-1.518178 -1.806122,-2.6437208 l 1.49196,-1.491998 q 1.413443,1.4134766 2.23799,3.3111908 0.824542,1.89772 0.824542,4.0964544 0,2.172553 -0.824542,4.07027 -0.824547,1.897718 -2.23799,3.337361 z"
     id="path8637"
     style="fill:#000000;stroke-width:0.0261755" />
</svg>
