<?xml version="1.0" encoding="UTF-8" standalone="no"?>
<svg
   height="24px"
   viewBox="0 0 24 24"
   width="24px"
   fill="#FFFFFF"
   version="1.1"
   id="svg139"
   sodipodi:docname="category_servo_white.svg"
   inkscape:version="1.2.2 (732a01da63, 2022-12-09)"
   xmlns:inkscape="http://www.inkscape.org/namespaces/inkscape"
   xmlns:sodipodi="http://sodipodi.sourceforge.net/DTD/sodipodi-0.dtd"
   xmlns="http://www.w3.org/2000/svg"
   xmlns:svg="http://www.w3.org/2000/svg">
  <defs
     id="defs143" />
  <sodipodi:namedview
     id="namedview141"
     pagecolor="#505050"
     bordercolor="#eeeeee"
     borderopacity="1"
     inkscape:showpageshadow="0"
     inkscape:pageopacity="0"
     inkscape:pagecheckerboard="0"
     inkscape:deskcolor="#505050"
     showgrid="false"
     inkscape:zoom="19.121346"
     inkscape:cx="10.642556"
     inkscape:cy="13.231286"
     inkscape:window-width="1600"
     inkscape:window-height="829"
     inkscape:window-x="3512"
     inkscape:window-y="177"
     inkscape:window-maximized="1"
     inkscape:current-layer="svg139" />
  <path
     d="M0 0h24v24H0z"
     fill="none"
     id="path135" />
  <path
     d="M 16.283235,22.215692 Q 14.665686,21.962948 13.515711,20.800338 12.365744,19.637726 12.113,18.020178 h 1.491173 q 0.227464,1.010964 0.94778,1.731281 0.720318,0.720316 1.731282,0.94778 z m 1.516451,0.02525 v -1.54172 q 1.21316,-0.278024 1.99665,-1.21316 0.7835,-0.935146 0.7835,-2.224123 0,-1.288988 -0.7835,-2.224125 -0.78349,-0.935146 -1.99665,-1.213159 v -1.541729 q 1.819734,0.278013 3.058172,1.680732 1.23842,1.402709 1.23842,3.298282 0,1.895551 -1.23842,3.298271 -1.238438,1.40271 -3.058172,1.680723 z M 12.113,16.503705 q 0.252744,-1.617549 1.402711,-2.78015 1.149975,-1.162619 2.767524,-1.415353 v 1.516453 q -1.010964,0.227453 -1.731282,0.947771 -0.720316,0.720316 -0.94778,1.73128 z m 3.917492,2.78016 v -4.043858 l 3.133991,2.02193 z M 12.037183,12.207106 Z M 9.2570226,22.31676 8.8526336,19.081672 q -0.328552,-0.126371 -0.61921,-0.303283 -0.290657,-0.176936 -0.568671,-0.379121 l -3.007623,1.263709 -2.78016,-4.802089 2.603244,-1.971381 q -0.02525,-0.176914 -0.02525,-0.341205 v -0.682403 q 0,-0.164271 0.02525,-0.341206 L 1.8769696,9.5533225 4.6571286,4.7512244 7.6647526,6.014942 q 0.278014,-0.2021947 0.581306,-0.3791104 0.303282,-0.1769254 0.606574,-0.3032923 l 0.40439,-3.2350882 h 5.5603084 l 0.40438,3.2350882 q 0.328572,0.1263673 0.619219,0.3032923 0.290658,0.1769157 0.568682,0.3791104 l 3.007614,-1.2637176 2.780149,4.8020981 -1.870283,1.4153545 q -0.556034,-0.278013 -1.137329,-0.467583 -0.581306,-0.18955 -1.238439,-0.265378 L 19.543603,9.0225562 18.557907,7.3039196 16.055761,8.3654425 Q 15.499735,7.7841274 14.829967,7.3923725 14.160209,7.0006273 13.376709,6.7984326 L 13.048146,4.11938 H 11.051487 L 10.697646,6.7984326 Q 9.9141569,7.0006273 9.2443886,7.3923725 8.5746206,7.7841274 8.0185946,8.3401632 l -2.502146,-1.0362436 -0.985696,1.7186366 2.173585,1.6175488 q -0.126371,0.379111 -0.176926,0.758231 -0.0506,0.379111 -0.0506,0.80877 0,0.404389 0.0506,0.7835 0.0506,0.37911 0.176926,0.75821 l -2.173585,1.642829 0.985696,1.718637 2.502146,-1.061504 q 0.429649,0.429649 0.922512,0.770855 0.492842,0.341207 1.0741474,0.568662 0.02525,1.440633 0.593939,2.704342 0.568661,1.263707 1.529087,2.224123 z m 1.0362344,-7.051492 q 0.151656,-0.505477 0.366484,-0.97305 0.214821,-0.467563 0.492843,-0.897232 -0.278022,-0.202186 -0.429658,-0.518122 -0.151656,-0.315927 -0.151656,-0.669758 0,-0.631854 0.442303,-1.074158 0.442303,-0.442284 1.074148,-0.442284 0.35384,0 0.682412,0.164271 0.328552,0.164281 0.530748,0.442304 0.429659,-0.278023 0.884606,-0.492853 0.454929,-0.214819 0.960407,-0.341196 Q 14.690966,9.65442 13.882195,9.1615676 13.073425,8.668725 12.087721,8.668725 q -1.491172,0 -2.5147704,1.036234 -1.02361,1.036244 -1.02361,2.502147 0,0.960416 0.467583,1.781829 0.467563,0.821405 1.2763334,1.276333 z"
     id="path9076"
     style="fill:#ffffff;stroke-width:0.0252741" />
</svg>
